# xmcd
# 
# Track frame offsets:
#     150
#     21739
#     38305
#     54136
#     69391
#     85337
#     98834
#     117726
#     138405
#     158088
# 
# Disc length: 2380
# 
# Revision: 0
# Processed by: cddbd v1.5.2PL0 Copyright (c) Steve Scherf et al.
# Submitted via: fre:ac v1.0.27
# 
DISCID=7e094a0a
DTITLE=Aversions Crown - Tyrant
DYEAR=2014
DGENRE=Metal
TTITLE0=Hollow Planet
TTITLE1=The Glass Sentient
TTITLE2=Conqueror
TTITLE3=Vectors
TTITLE4=Earth Sterilister
TTITLE5=Avalanche
TTITLE6=Xenoforms
TTITLE7=Overseer
TTITLE8=Controller
TTITLE9=Faith Collapsing
EXTD=
EXTT0=
EXTT1=
EXTT2=
EXTT3=
EXTT4=
EXTT5=
EXTT6=
EXTT7=
EXTT8=
EXTT9=
PLAYORDER=
